<?xml version="1.0" encoding="UTF-8" standalone="no"?>
<!-- Created with Inkscape (http://www.inkscape.org/) -->

<svg
   xmlns:dc="http://purl.org/dc/elements/1.1/"
   xmlns:cc="http://creativecommons.org/ns#"
   xmlns:rdf="http://www.w3.org/1999/02/22-rdf-syntax-ns#"
   xmlns:svg="http://www.w3.org/2000/svg"
   xmlns="http://www.w3.org/2000/svg"
   xmlns:sodipodi="http://sodipodi.sourceforge.net/DTD/sodipodi-0.dtd"
   xmlns:inkscape="http://www.inkscape.org/namespaces/inkscape"
   width="197.46094"
   height="197.07031"
   id="svg3855"
   version="1.1"
   inkscape:version="0.48.4 r9939"
   inkscape:export-filename="/home/connor/Downloads/chainspeakminimal.png"
   inkscape:export-xdpi="206.52"
   inkscape:export-ydpi="206.52"
   sodipodi:docname="chainspeaktransparent.svg">
  <defs
     id="defs3857">
    <clipPath
       clipPathUnits="userSpaceOnUse"
       id="clipPath4094">
      <path
         inkscape:connector-curvature="0"
         d="M 0,800 800,800 800,0 0,0 0,800 z"
         id="path4096" />
    </clipPath>
    <clipPath
       clipPathUnits="userSpaceOnUse"
       id="clipPath4206">
      <path
         inkscape:connector-curvature="0"
         d="m 0.844727,802.486 796.814273,0 0,-802.486 -796.814273,0 0,802.486 z"
         id="path4208" />
    </clipPath>
    <clipPath
       clipPathUnits="userSpaceOnUse"
       id="clipPath4434">
      <path
         inkscape:connector-curvature="0"
         d="M 0,800 800,800 800,0 0,0 0,800 z"
         id="path4436" />
    </clipPath>
    <clipPath
       clipPathUnits="userSpaceOnUse"
       id="clipPath4438">
      <path
         inkscape:connector-curvature="0"
         d="m 393.504,583.16 157.25,0 0,-240.167 -157.25,0 0,240.167 z"
         id="path4440" />
    </clipPath>
    <clipPath
       clipPathUnits="userSpaceOnUse"
       id="clipPath4442">
      <path
         inkscape:connector-curvature="0"
         d="m 670.677,676.62 97.357,0 0,-150.274 -97.357,0 0,150.274 z"
         id="path4444" />
    </clipPath>
    <clipPath
       clipPathUnits="userSpaceOnUse"
       id="clipPath4446">
      <path
         inkscape:connector-curvature="0"
         d="m 353.953,800 128.314,0 0,-119.702 -128.314,0 0,119.702 z"
         id="path4448" />
    </clipPath>
    <clipPath
       clipPathUnits="userSpaceOnUse"
       id="clipPath4450">
      <path
         inkscape:connector-curvature="0"
         d="m 166.486,742.926 35.299,0 0,-32.701 -35.299,0 0,32.701 z"
         id="path4452" />
    </clipPath>
    <clipPath
       clipPathUnits="userSpaceOnUse"
       id="clipPath4454">
      <path
         inkscape:connector-curvature="0"
         d="m 175.922,699.396 30.54,0 0,-45.311 -30.54,0 0,45.311 z"
         id="path4456" />
    </clipPath>
    <clipPath
       clipPathUnits="userSpaceOnUse"
       id="clipPath4458">
      <path
         inkscape:connector-curvature="0"
         d="m 0,598.663 158.466,0 0,-88.819 -158.466,0 0,88.819 z"
         id="path4460" />
    </clipPath>
    <clipPath
       clipPathUnits="userSpaceOnUse"
       id="clipPath4462">
      <path
         inkscape:connector-curvature="0"
         d="m 25.9312,778.896 73.4418,0 0,-125.01 -73.4418,0 0,125.01 z"
         id="path4464" />
    </clipPath>
    <clipPath
       clipPathUnits="userSpaceOnUse"
       id="clipPath4466">
      <path
         inkscape:connector-curvature="0"
         d="m 99.373,653.886 0.3011,0 0,-0.378 -0.3011,0 0,0.378 z"
         id="path4468" />
    </clipPath>
    <clipPath
       clipPathUnits="userSpaceOnUse"
       id="clipPath4470">
      <path
         inkscape:connector-curvature="0"
         d="m 92.5366,779.64 0.1134,0 0,-0.744 -0.1134,0 0,0.744 z"
         id="path4472" />
    </clipPath>
    <clipPath
       clipPathUnits="userSpaceOnUse"
       id="clipPath4474">
      <path
         inkscape:connector-curvature="0"
         d="m 158.466,710.225 17.456,0 0,-10.829 -17.456,0 0,10.829 z"
         id="path4476" />
    </clipPath>
    <clipPath
       clipPathUnits="userSpaceOnUse"
       id="clipPath4478">
      <path
         inkscape:connector-curvature="0"
         d="m 201.785,767.683 177.338,0 0,-87.385 -177.338,0 0,87.385 z"
         id="path4480" />
    </clipPath>
    <clipPath
       clipPathUnits="userSpaceOnUse"
       id="clipPath4482">
      <path
         inkscape:connector-curvature="0"
         d="m 173.575,727.381 44.456,0 0,-30.855 -44.456,0 0,30.855 z"
         id="path4484" />
    </clipPath>
    <clipPath
       clipPathUnits="userSpaceOnUse"
       id="clipPath4486">
      <path
         inkscape:connector-curvature="0"
         d="m 173.575,727.381 44.456,0 0,-30.855 -44.456,0 0,30.855 z"
         id="path4488" />
    </clipPath>
    <clipPath
       clipPathUnits="userSpaceOnUse"
       id="clipPath4490">
      <path
         inkscape:connector-curvature="0"
         d="m 447.938,751.38 176.977,0 0,-291.112 -176.977,0 0,291.112 z"
         id="path4492" />
    </clipPath>
    <clipPath
       clipPathUnits="userSpaceOnUse"
       id="clipPath4494">
      <path
         inkscape:connector-curvature="0"
         d="m 455.38,509.276 41.043,0 0,-127.2 -41.043,0 0,127.2 z"
         id="path4496" />
    </clipPath>
    <clipPath
       clipPathUnits="userSpaceOnUse"
       id="clipPath4498">
      <path
         inkscape:connector-curvature="0"
         d="m 455.38,509.276 41.043,0 0,-127.2 -41.043,0 0,127.2 z"
         id="path4500" />
    </clipPath>
    <clipPath
       clipPathUnits="userSpaceOnUse"
       id="clipPath4502">
      <path
         inkscape:connector-curvature="0"
         d="m 586.227,272.73 126.872,0 0,-174.4654 -126.872,0 0,174.4654 z"
         id="path4504" />
    </clipPath>
    <clipPath
       clipPathUnits="userSpaceOnUse"
       id="clipPath4506">
      <path
         inkscape:connector-curvature="0"
         d="m 582.471,275.459 3.756,0 0,-2.729 -3.756,0 0,2.729 z"
         id="path4508" />
    </clipPath>
    <clipPath
       clipPathUnits="userSpaceOnUse"
       id="clipPath4510">
      <path
         inkscape:connector-curvature="0"
         d="m 651.498,640.813 148.502,0 0,-336.68 -148.502,0 0,336.68 z"
         id="path4512" />
    </clipPath>
    <clipPath
       clipPathUnits="userSpaceOnUse"
       id="clipPath4514">
      <path
         inkscape:connector-curvature="0"
         d="m 615.412,430.537 127.249,0 0,-144.964 -127.249,0 0,144.964 z"
         id="path4516" />
    </clipPath>
    <clipPath
       clipPathUnits="userSpaceOnUse"
       id="clipPath4518">
      <path
         inkscape:connector-curvature="0"
         d="m 513.636,392.631 161.578,0 0,-107.879 -161.578,0 0,107.879 z"
         id="path4520" />
    </clipPath>
    <clipPath
       clipPathUnits="userSpaceOnUse"
       id="clipPath4522">
      <path
         inkscape:connector-curvature="0"
         d="m 652.459,460.835 57.487,0 0,-79.55 -57.487,0 0,79.55 z"
         id="path4524" />
    </clipPath>
    <clipPath
       clipPathUnits="userSpaceOnUse"
       id="clipPath4526">
      <path
         inkscape:connector-curvature="0"
         d="m 652.459,460.835 57.487,0 0,-79.55 -57.487,0 0,79.55 z"
         id="path4528" />
    </clipPath>
    <clipPath
       clipPathUnits="userSpaceOnUse"
       id="clipPath4530">
      <path
         inkscape:connector-curvature="0"
         d="m 522.74,563.433 152.598,0 0,-81.709 -152.598,0 0,81.709 z"
         id="path4532" />
    </clipPath>
    <clipPath
       clipPathUnits="userSpaceOnUse"
       id="clipPath4534">
      <path
         inkscape:connector-curvature="0"
         d="m 669.708,526.455 1.339,0 0,-1.495 -1.339,0 0,1.495 z"
         id="path4536" />
    </clipPath>
    <clipPath
       clipPathUnits="userSpaceOnUse"
       id="clipPath4538">
      <path
         inkscape:connector-curvature="0"
         d="m 669.708,526.455 1.339,0 0,-1.495 -1.339,0 0,1.495 z"
         id="path4540" />
    </clipPath>
    <clipPath
       clipPathUnits="userSpaceOnUse"
       id="clipPath4542">
      <path
         inkscape:connector-curvature="0"
         d="m 503.533,575.797 41.883,0 0,-60.112 -41.883,0 0,60.112 z"
         id="path4544" />
    </clipPath>
    <clipPath
       clipPathUnits="userSpaceOnUse"
       id="clipPath4546">
      <path
         inkscape:connector-curvature="0"
         d="m 503.533,575.797 41.883,0 0,-60.112 -41.883,0 0,60.112 z"
         id="path4548" />
    </clipPath>
    <clipPath
       clipPathUnits="userSpaceOnUse"
       id="clipPath4550">
      <path
         inkscape:connector-curvature="0"
         d="m 644.228,800 150.439,0 0,-169.261 -150.439,0 0,169.261 z"
         id="path4552" />
    </clipPath>
    <clipPath
       clipPathUnits="userSpaceOnUse"
       id="clipPath4554">
      <path
         inkscape:connector-curvature="0"
         d="m 675.214,285.573 124.786,0 0,-158.841 -124.786,0 0,158.841 z"
         id="path4556" />
    </clipPath>
    <clipPath
       clipPathUnits="userSpaceOnUse"
       id="clipPath4558">
      <path
         inkscape:connector-curvature="0"
         d="m 612.843,395.67 2.569,0 0,-3.039 -2.569,0 0,3.039 z"
         id="path4560" />
    </clipPath>
    <clipPath
       clipPathUnits="userSpaceOnUse"
       id="clipPath4562">
      <path
         inkscape:connector-curvature="0"
         d="m 614.552,393.491 129.402,0 0,-111.701 -129.402,0 0,111.701 z"
         id="path4564" />
    </clipPath>
    <clipPath
       clipPathUnits="userSpaceOnUse"
       id="clipPath4566">
      <path
         inkscape:connector-curvature="0"
         d="m 614.552,393.491 129.402,0 0,-111.701 -129.402,0 0,111.701 z"
         id="path4568" />
    </clipPath>
    <clipPath
       clipPathUnits="userSpaceOnUse"
       id="clipPath4570">
      <path
         inkscape:connector-curvature="0"
         d="m 607.031,143 181.371,0 0,-143 -181.371,0 0,143 z"
         id="path4572" />
    </clipPath>
    <clipPath
       clipPathUnits="userSpaceOnUse"
       id="clipPath4574">
      <path
         inkscape:connector-curvature="0"
         d="m 632.801,133.938 50.543,0 0,-91.0112 -50.543,0 0,91.0112 z"
         id="path4576" />
    </clipPath>
    <clipPath
       clipPathUnits="userSpaceOnUse"
       id="clipPath4578">
      <path
         inkscape:connector-curvature="0"
         d="m 632.801,133.938 50.543,0 0,-91.0112 -50.543,0 0,91.0112 z"
         id="path4580" />
    </clipPath>
    <clipPath
       clipPathUnits="userSpaceOnUse"
       id="clipPath5022">
      <path
         inkscape:connector-curvature="0"
         d="m 0,687.47 162.439,0 0,-140.929 -162.439,0 0,140.929 z"
         id="path5024" />
    </clipPath>
    <clipPath
       clipPathUnits="userSpaceOnUse"
       id="clipPath5038">
      <path
         inkscape:connector-curvature="0"
         d="m 143.885,747.989 22.601,0 0,-56.227 -22.601,0 0,56.227 z"
         id="path5040" />
    </clipPath>
    <clipPath
       clipPathUnits="userSpaceOnUse"
       id="clipPath5054">
      <path
         inkscape:connector-curvature="0"
         d="m 168.309,800 172.77,0 0,-127.628 -172.77,0 0,127.628 z"
         id="path5056" />
    </clipPath>
    <clipPath
       clipPathUnits="userSpaceOnUse"
       id="clipPath5070">
      <path
         inkscape:connector-curvature="0"
         d="m 0,800 143.885,0 0,-112.53 L 0,687.47 0,800 z"
         id="path5072" />
    </clipPath>
    <clipPath
       clipPathUnits="userSpaceOnUse"
       id="clipPath5086">
      <path
         inkscape:connector-curvature="0"
         d="m 162.439,691.762 23.306,0 0,-32.709 -23.306,0 0,32.709 z"
         id="path5088" />
    </clipPath>
    <clipPath
       clipPathUnits="userSpaceOnUse"
       id="clipPath5102">
      <path
         inkscape:connector-curvature="0"
         d="m 115.913,720.943 47.709,0 0,-52.406 -47.709,0 0,52.406 z"
         id="path5104" />
    </clipPath>
    <clipPath
       clipPathUnits="userSpaceOnUse"
       id="clipPath5118">
      <path
         inkscape:connector-curvature="0"
         d="m 115.913,720.943 47.709,0 0,-52.406 -47.709,0 0,52.406 z"
         id="path5120" />
    </clipPath>
    <clipPath
       clipPathUnits="userSpaceOnUse"
       id="clipPath5134">
      <path
         inkscape:connector-curvature="0"
         d="m 381.588,800 233.132,0 0,-119.702 -233.132,0 0,119.702 z"
         id="path5136" />
    </clipPath>
    <clipPath
       clipPathUnits="userSpaceOnUse"
       id="clipPath5150">
      <path
         inkscape:connector-curvature="0"
         d="m 393.504,718.559 132.094,0 0,-135.399 -132.094,0 0,135.399 z"
         id="path5152" />
    </clipPath>
    <clipPath
       clipPathUnits="userSpaceOnUse"
       id="clipPath5166">
      <path
         inkscape:connector-curvature="0"
         d="m 431.2,742.301 24.904,0 0,-36.53 -24.904,0 0,36.53 z"
         id="path5168" />
    </clipPath>
    <clipPath
       clipPathUnits="userSpaceOnUse"
       id="clipPath5182">
      <path
         inkscape:connector-curvature="0"
         d="m 431.2,742.301 24.904,0 0,-36.53 -24.904,0 0,36.53 z"
         id="path5184" />
    </clipPath>
    <clipPath
       clipPathUnits="userSpaceOnUse"
       id="clipPath5198">
      <path
         inkscape:connector-curvature="0"
         d="m 732.018,290.455 16.175,0 0,-12.683 -16.175,0 0,12.683 z"
         id="path5200" />
    </clipPath>
    <clipPath
       clipPathUnits="userSpaceOnUse"
       id="clipPath5214">
      <path
         inkscape:connector-curvature="0"
         d="m 596.285,514.056 23.542,0 0,-53.268 -23.542,0 0,53.268 z"
         id="path5216" />
    </clipPath>
    <clipPath
       clipPathUnits="userSpaceOnUse"
       id="clipPath5230">
      <path
         inkscape:connector-curvature="0"
         d="m 584.927,465.635 103.325,0 0,-189.551 -103.325,0 0,189.551 z"
         id="path5232" />
    </clipPath>
    <clipPath
       clipPathUnits="userSpaceOnUse"
       id="clipPath5246">
      <path
         inkscape:connector-curvature="0"
         d="m 587.55,277.772 144.468,0 0,-95.639 -144.468,0 0,95.639 z"
         id="path5248" />
    </clipPath>
    <clipPath
       clipPathUnits="userSpaceOnUse"
       id="clipPath5262">
      <path
         inkscape:connector-curvature="0"
         d="m 688.252,553.713 96.76,0 0,-185.416 -96.76,0 0,185.416 z"
         id="path5264" />
    </clipPath>
    <clipPath
       clipPathUnits="userSpaceOnUse"
       id="clipPath5278">
      <path
         inkscape:connector-curvature="0"
         d="m 685.553,373.173 5.769,0 0,-5.036 -5.769,0 0,5.036 z"
         id="path5280" />
    </clipPath>
    <clipPath
       clipPathUnits="userSpaceOnUse"
       id="clipPath5294">
      <path
         inkscape:connector-curvature="0"
         d="m 685.553,373.173 5.769,0 0,-5.036 -5.769,0 0,5.036 z"
         id="path5296" />
    </clipPath>
    <clipPath
       clipPathUnits="userSpaceOnUse"
       id="clipPath5310">
      <path
         inkscape:connector-curvature="0"
         d="m 636.536,338.845 97.917,0 0,-62.169 -97.917,0 0,62.169 z"
         id="path5312" />
    </clipPath>
    <clipPath
       clipPathUnits="userSpaceOnUse"
       id="clipPath5326">
      <path
         inkscape:connector-curvature="0"
         d="m 636.536,338.845 97.917,0 0,-62.169 -97.917,0 0,62.169 z"
         id="path5328" />
    </clipPath>
    <clipPath
       clipPathUnits="userSpaceOnUse"
       id="clipPath5342">
      <path
         inkscape:connector-curvature="0"
         d="m 575.775,126.104 192.259,0 0,-126.104 -192.259,0 0,126.104 z"
         id="path5344" />
    </clipPath>
    <clipPath
       clipPathUnits="userSpaceOnUse"
       id="clipPath5358">
      <path
         inkscape:connector-curvature="0"
         d="m 619.827,527.864 51.924,0 0,-62.229 -51.924,0 0,62.229 z"
         id="path5360" />
    </clipPath>
    <clipPath
       clipPathUnits="userSpaceOnUse"
       id="clipPath5374">
      <path
         inkscape:connector-curvature="0"
         d="m 465.11,460.788 131.175,0 0,-169.073 -131.175,0 0,169.073 z"
         id="path5376" />
    </clipPath>
    <clipPath
       clipPathUnits="userSpaceOnUse"
       id="clipPath5390">
      <path
         inkscape:connector-curvature="0"
         d="m 593.199,481.865 36.845,0 0,-71.266 -36.845,0 0,71.266 z"
         id="path5392" />
    </clipPath>
    <clipPath
       clipPathUnits="userSpaceOnUse"
       id="clipPath5406">
      <path
         inkscape:connector-curvature="0"
         d="m 593.199,481.865 36.845,0 0,-71.266 -36.845,0 0,71.266 z"
         id="path5408" />
    </clipPath>
    <clipPath
       clipPathUnits="userSpaceOnUse"
       id="clipPath5422">
      <path
         inkscape:connector-curvature="0"
         d="m 599.561,730.997 165.083,0 0,-216.941 -165.083,0 0,216.941 z"
         id="path5424" />
    </clipPath>
    <clipPath
       clipPathUnits="userSpaceOnUse"
       id="clipPath5438">
      <path
         inkscape:connector-curvature="0"
         d="m 735.826,371.315 64.174,0 0,-129.961 -64.174,0 0,129.961 z"
         id="path5440" />
    </clipPath>
    <clipPath
       clipPathUnits="userSpaceOnUse"
       id="clipPath5454">
      <path
         inkscape:connector-curvature="0"
         d="m 734.453,297.603 11.113,0 0,-15.473 -11.113,0 0,15.473 z"
         id="path5456" />
    </clipPath>
    <clipPath
       clipPathUnits="userSpaceOnUse"
       id="clipPath5470">
      <path
         inkscape:connector-curvature="0"
         d="m 734.453,297.603 11.113,0 0,-15.473 -11.113,0 0,15.473 z"
         id="path5472" />
    </clipPath>
    <clipPath
       clipPathUnits="userSpaceOnUse"
       id="clipPath5486">
      <path
         inkscape:connector-curvature="0"
         d="m 635.648,368.137 49.905,0 0,-29.292 -49.905,0 0,29.292 z"
         id="path5488" />
    </clipPath>
    <clipPath
       clipPathUnits="userSpaceOnUse"
       id="clipPath5502">
      <path
         inkscape:connector-curvature="0"
         d="m 635.648,368.137 49.905,0 0,-29.292 -49.905,0 0,29.292 z"
         id="path5504" />
    </clipPath>
    <clipPath
       clipPathUnits="userSpaceOnUse"
       id="clipPath5518">
      <path
         inkscape:connector-curvature="0"
         d="m 691.322,369.919 58.393,0 0,-72.316 -58.393,0 0,72.316 z"
         id="path5520" />
    </clipPath>
    <clipPath
       clipPathUnits="userSpaceOnUse"
       id="clipPath5534">
      <path
         inkscape:connector-curvature="0"
         d="m 691.322,369.919 58.393,0 0,-72.316 -58.393,0 0,72.316 z"
         id="path5536" />
    </clipPath>
    <clipPath
       clipPathUnits="userSpaceOnUse"
       id="clipPath5550">
      <path
         inkscape:connector-curvature="0"
         d="m 669.854,368.297 65.972,0 0,-77.842 -65.972,0 0,77.842 z"
         id="path5552" />
    </clipPath>
    <clipPath
       clipPathUnits="userSpaceOnUse"
       id="clipPath5566">
      <path
         inkscape:connector-curvature="0"
         d="m 669.854,368.297 65.972,0 0,-77.842 -65.972,0 0,77.842 z"
         id="path5568" />
    </clipPath>
    <clipPath
       clipPathUnits="userSpaceOnUse"
       id="clipPath5582">
      <path
         inkscape:connector-curvature="0"
         d="m 669.854,368.297 65.972,0 0,-77.842 -65.972,0 0,77.842 z"
         id="path5584" />
    </clipPath>
    <clipPath
       clipPathUnits="userSpaceOnUse"
       id="clipPath5598">
      <path
         inkscape:connector-curvature="0"
         d="m 703.969,126.104 88.059,0 0,-126.104 -88.059,0 0,126.104 z"
         id="path5600" />
    </clipPath>
    <clipPath
       clipPathUnits="userSpaceOnUse"
       id="clipPath5614">
      <path
         inkscape:connector-curvature="0"
         d="m -565.941,800 1368.543,0 0,-1359 -1368.543,0 0,1359 z"
         id="path5616" />
    </clipPath>
    <clipPath
       clipPathUnits="userSpaceOnUse"
       id="clipPath5618">
      <path
         inkscape:connector-curvature="0"
         d="m 800,0 -800.763,0 0,800 L 800,800 800,0 z"
         id="path5620" />
    </clipPath>
    <clipPath
       clipPathUnits="userSpaceOnUse"
       id="clipPath5622">
      <path
         inkscape:connector-curvature="0"
         d="m -565.941,800 1368.543,0 0,-1359 -1368.543,0 0,1359 z"
         id="path5624" />
    </clipPath>
    <clipPath
       clipPathUnits="userSpaceOnUse"
       id="clipPath5626">
      <path
         inkscape:connector-curvature="0"
         d="m 802.602,-559 -1368.543,0 0,1359 1368.543,0 0,-1359 z"
         id="path5628" />
    </clipPath>
    <mask
       maskUnits="userSpaceOnUse"
       x="0"
       y="0"
       width="1"
       height="1"
       id="mask5640">
      <g
         id="g5642">
        <g
           clip-path="url(#clipPath5630)"
           id="g5644">
          <g
             id="g5646">
            <g
               id="g5648">
              <path
                 inkscape:connector-curvature="0"
                 d="m -32768,32767 65535,0 0,-65535 -65535,0 0,65535 z"
                 style="fill:url(#radialGradient5634);stroke:none"
                 id="path5650" />
            </g>
          </g>
        </g>
      </g>
    </mask>
    <clipPath
       clipPathUnits="userSpaceOnUse"
       id="clipPath5630">
      <path
         inkscape:connector-curvature="0"
         d="m -32768,32767 65535,0 0,-65535 -65535,0 0,65535 z"
         id="path5632" />
    </clipPath>
    <radialGradient
       fx="0"
       fy="0"
       cx="0"
       cy="0"
       r="1"
       gradientUnits="userSpaceOnUse"
       gradientTransform="matrix(684.27161,0,0,-679.5,118.33048,120.5)"
       spreadMethod="pad"
       id="radialGradient5634">
      <stop
         style="stop-opacity:0;stop-color:#ffffff"
         offset="0"
         id="stop5636" />
      <stop
         style="stop-opacity:0.90000763;stop-color:#ffffff"
         offset="1"
         id="stop5638" />
    </radialGradient>
    <radialGradient
       fx="0"
       fy="0"
       cx="0"
       cy="0"
       r="1"
       gradientUnits="userSpaceOnUse"
       gradientTransform="matrix(684.27161,0,0,-679.5,118.33048,120.5)"
       spreadMethod="pad"
       id="radialGradient5652">
      <stop
         style="stop-opacity:1;stop-color:#ffffff"
         offset="0"
         id="stop5654" />
      <stop
         style="stop-opacity:1;stop-color:#1e120d"
         offset="1"
         id="stop5656" />
    </radialGradient>
  </defs>
  <sodipodi:namedview
     id="base"
     pagecolor="#ffffff"
     bordercolor="#666666"
     borderopacity="1.0"
     inkscape:pageopacity="0.0"
     inkscape:pageshadow="2"
     inkscape:zoom="3.6203867"
     inkscape:cx="52.54117"
     inkscape:cy="55.102528"
     inkscape:document-units="px"
     inkscape:current-layer="g3810"
     showgrid="false"
     fit-margin-top="0"
     fit-margin-left="0"
     fit-margin-right="0"
     fit-margin-bottom="0"
     inkscape:window-width="2560"
     inkscape:window-height="1605"
     inkscape:window-x="0"
     inkscape:window-y="73"
     inkscape:window-maximized="1" />
  <metadata
     id="metadata3860">
    <rdf:RDF>
      <cc:Work
         rdf:about="">
        <dc:format>image/svg+xml</dc:format>
        <dc:type
           rdf:resource="http://purl.org/dc/dcmitype/StillImage" />
        <dc:title></dc:title>
      </cc:Work>
    </rdf:RDF>
  </metadata>
  <g
     inkscape:label="Layer 1"
     inkscape:groupmode="layer"
     id="layer1"
     transform="translate(-336.04753,-350.71795)">
    <g
       transform="matrix(1.25,0,0,-1.25,486.86784,606.10858)"
       id="g3810">
      <path
         inkscape:connector-curvature="0"
         id="path3820"
         style="fill:#fab81e;fill-opacity:1;stroke:#808080;stroke-width:10.65287495;stroke-linecap:square;stroke-linejoin:miter;stroke-miterlimit:3;stroke-opacity:1;stroke-dasharray:none"
         d="m 11.53561,72.12318 -72.903849,-19.534528 -53.341421,53.368088 19.510978,72.88883 72.903853,19.53453 52.066991,-52.11042" />
    </g>
    <g
       transform="matrix(0.71571055,-0.19177406,0.19177406,0.71571055,325.89032,323.57562)"
       id="g5527">
      <path
         style="fill:#ffffff;fill-opacity:1"
         d="m 73.233711,276.28066 c 0,-6.28889 -0.42993,-10.22993 -1.2,-11 -0.82876,-0.82876 -5.93333,-1.2 -16.5,-1.2 l -15.3,0 0,-6.87617 0,-6.87617 5.55077,-0.46031 c 8.67052,-0.71903 8.84076,-1.08373 9.60289,-20.57244 1.12849,-28.85684 0.96568,-68.85888 -0.2915,-71.61808 -1.26541,-2.77729 -5.42608,-4.59683 -10.51138,-4.59683 l -3.35078,0 0,-7.13408 0,-7.13407 15.34908,0.71357 c 19.22654,0.89383 18.65092,1.268 18.65092,-12.12384 0,-8.28434 0.20756,-9.45591 1.58179,-8.92857 0.86998,0.33385 4.87018,0.60699 8.88934,0.60699 l 7.30755,0 -0.51926,8.32299 c -0.7402,11.8646 -0.14418,12.67701 9.300509,12.67701 7.11943,0 7.53777,-0.12677 8.46482,-2.5651 0.53639,-1.4108 0.97525,-6.1358 0.97525,-10.5 l 0,-7.9349 8.46617,0 8.46617,0 0.28383,10.71399 c 0.32148,12.13528 -1.15233,10.13662 11.97745,16.24284 10.50162,4.88396 15.68291,12.7921 15.75272,24.04317 0.0639,10.30562 -6.06934,19.23968 -16.99832,24.76064 -7.26493,3.67001 -7.32553,5.92271 -0.22161,8.23857 13.63217,4.44405 21.27359,14.35395 21.27359,27.589 0,14.56528 -10.83057,27.14601 -27.01675,31.38251 -6.3884,1.67208 -6.98325,2.88339 -6.98325,14.22041 l 0,9.80887 -8.5,0 -8.5,0 0,-9.3 c 0,-5.9 -0.43871,-9.73871 -1.2,-10.5 -1.48625,-1.48625 -15.419509,-1.62467 -16.323389,-0.16216 -0.35278,0.57081 -0.89545,5.29581 -1.20594,10.5 l -0.56452,9.46216 -8.35307,0 -8.35308,0 z m 42.117629,-29.21603 c 11.61963,-3.22761 18.03227,-14.23362 14.87129,-25.52356 -1.48279,-5.29598 -7.01097,-10.75692 -12.66814,-12.51406 -2.10143,-0.65272 -10.19125,-1.40662 -17.977369,-1.67534 -13.73773,-0.47413 -14.19088,-0.42453 -15.31516,1.67621 -0.78652,1.46963 -1.05736,7.6324 -0.84341,19.19139 0.28682,15.49536 0.48973,17.15406 2.25629,18.44399 2.33091,1.70201 23.941849,1.9943 29.676499,0.40137 z m 4.23008,-57.8923 c 12.62903,-6.16037 12.79141,-23.25052 0.28317,-29.80384 -3.51151,-1.83975 -29.403539,-3.47659 -33.380879,-2.11027 -2.21076,0.75946 -2.25,1.05968 -2.25,17.21436 0,12.18808 0.32337,16.58615 1.25,17.00088 0.6875,0.30771 7.55,0.44789 15.249999,0.31151 12.38849,-0.21941 14.55801,-0.52015 18.84771,-2.61264 z"
         id="path5529"
         inkscape:connector-curvature="0"
         sodipodi:nodetypes="ssscccsssscccsssscsssscccsssssssscccsssscccssssssssssssssss" />
    </g>
  </g>
</svg>
